<svg xmlns="http://www.w3.org/2000/svg" width="60" height="60" viewBox="0 0 60 60">
    <g fill="#000" fill-rule="nonzero">
        <path d="M8 48c-2.2 0-4 1.8-4 4s1.8 4 4 4 4-1.8 4-4-1.8-4-4-4zm0 6c-1.1 0-2-.9-2-2s.9-2 2-2 2 .9 2 2-.9 2-2 2z"/>
        <path d="M57.976 43.518L29.34 14.716c.416-.35.72-.748.958-1.148l.8-1.407c.699-1.206.898-2.613.399-3.82-.8-1.909-2.898-3.014-5.696-3.115-1.592-.067-3.315.223-4.879.806a1.097 1.097 0 0 1-.018-.203c0-.301.1-.502.3-.603.6-.603.9-1.407.9-2.21 0-.905-.4-1.609-1-2.212C20.503.201 19.804 0 19.005 0c-.9.1-1.699.402-2.298 1.106-2.063 2.255-2.354 5.48-.947 8.08C6.447 16.36-2.454 31.56.618 53.568c.3 2.01 1.3 3.718 2.898 4.924A7.068 7.068 0 0 0 7.913 60c.3 0 .6 0 1.1-.1 1.998-.302 3.697-1.307 4.896-2.915 1.199-1.608 1.699-3.518 1.399-5.528-1.461-10.114 1.809-24.02 9.556-32.7l6.932 6.972-1.88 1.89a1.046 1.046 0 0 0-.538.541L26.1 31.457l26.88 26.935 4.997-4.925c2.697-2.713 2.697-7.236 0-9.95zM17.406 7.94a4.92 4.92 0 0 1 .8-5.528c.2-.2.5-.402.899-.402.2 0 .4.1.6.302.2.2.3.402.3.703 0 .201-.1.503-.2.603-.6.603-.9 1.307-.9 2.11 0 .403.1.704.2 1.106-.1.1-.3.201-.4.302l-.9.603c-.199 0-.299.1-.399.2zM13.21 51.759c.2 1.407-.1 2.914-.999 4.02-.9 1.206-2.198 1.91-3.597 2.11-1.4.201-2.898-.1-3.997-1.005-1.2-.904-1.899-2.21-2.099-3.618C-.37 32.19 8.027 17.576 16.87 10.804l.038.05.799-.603c.4-.301.8-.502 1.2-.804l.898-.603c.3-.2.7-.402 1.2-.603l.842-.39a11.71 11.71 0 0 1 3.654-.615h.1c1 .1 3.298.302 3.897 1.91.2.603.1 1.306-.3 2.01l-.799 1.407c-.1.301-.4.603-.7.804-11.191 8.241-16.187 26.03-14.489 38.392zm39.671 3.819l-23.982-24.12 1.423-1.483L54.33 54.12l-1.449 1.457zm3.498-3.518l-.65.654-.75-.754v-4.12c0-.604-.4-1.006-.999-1.006-.6 0-.999.402-.999 1.005v2.11l-1.998-2.01v-4.22c0-.603-.4-1.005-1-1.005s-.999.402-.999 1.005v2.21l-1.999-2.01V39.7c0-.604-.4-1.006-.999-1.006-.6 0-.999.402-.999 1.005v2.211l-1.999-2.01v-4.22c0-.604-.4-1.006-.999-1.006-.6 0-.999.402-.999 1.005v2.211l-9.293-9.346 2.798-2.915-8.258-8.305c.476-.465.967-.91 1.472-1.334l28.67 28.935c1.898 2.01 1.898 5.227 0 7.136z"/>
        <path d="M26 12.5c0-1.9-1.6-3.5-3.5-3.5S19 10.6 19 12.5s1.6 3.5 3.5 3.5 3.5-1.6 3.5-3.5zM22.5 14c-.8 0-1.5-.7-1.5-1.5s.7-1.5 1.5-1.5 1.5.7 1.5 1.5-.7 1.5-1.5 1.5z"/>
    </g>
</svg>
