<svg xmlns="http://www.w3.org/2000/svg" width="34" height="60" viewBox="0 0 34 60">
    <path fill="#000" fill-rule="nonzero" d="M33.891 20.6c-.2-.4-.499-.6-.898-.6h-11.78l11.68-18.5c.2-.3.2-.7 0-1-.2-.3-.5-.5-.899-.5H16.022c-.399 0-.699.2-.898.5L.15 30.5c-.2.3-.2.7 0 1 .2.3.599.5.898.5H11.33L.15 58.7c-.2.4 0 .9.399 1.2.1.1.3.1.5.1.299 0 .598-.1.798-.3l31.944-38c.2-.3.3-.7.1-1.1zM4.542 53.3l9.184-22c.1-.3.1-.6-.1-.9-.2-.2-.499-.4-.798-.4H2.645L16.621 2h13.577l-11.78 18.5c-.2.3-.2.7 0 1 .2.3.5.5.899.5h11.58L4.541 53.3z"/>
</svg>
