<svg xmlns="http://www.w3.org/2000/svg" width="50" height="56" viewBox="0 0 50 56">
    <g fill="#000" fill-rule="nonzero">
        <path d="M45.638.403V.398c-.293-.432-.858-.527-1.26-.213-.398.311-.49.906-.208 1.339 5.368 8.058 5.368 18.883 0 26.941-.291.434-.2 1.039.205 1.351a.216.216 0 0 0 .005.004c.406.31.968.21 1.258-.225 5.816-8.73 5.816-20.46 0-29.192zM5.622.18c-.406-.31-.969-.21-1.258.225-5.819 8.732-5.819 20.464 0 29.197.293.432.857.527 1.26.212.398-.31.49-.906.208-1.338-5.37-8.06-5.37-18.887 0-26.946.29-.435.195-1.04-.21-1.35z"/>
        <path d="M11.781 4.542c.35-.417.268-1.018-.184-1.342-.45-.322-1.098-.248-1.45.167-5.53 6.542-5.53 15.722 0 22.264.352.417 1.003.492 1.454.167.45-.324.532-.925.18-1.342-4.948-5.851-4.948-14.063 0-19.914zM37.399 3.203c-.449.325-.53.923-.18 1.339 4.948 5.851 4.948 14.063 0 19.914-.352.417-.27 1.018.18 1.342.451.325 1.102.25 1.453-.167 5.53-6.542 5.53-15.722 0-22.264-.352-.416-1.003-.49-1.453-.164z"/>
        <path d="M32.277 8.586c3.629 3.601 3.629 9.232 0 12.833a.897.897 0 0 0 .043 1.326 1.048 1.048 0 0 0 1.415-.04c4.353-4.325 4.353-11.08 0-15.404a1.048 1.048 0 0 0-1.414-.051.897.897 0 0 0-.044 1.336zM16.993 23c.553 0 1.001-.42 1.002-.938a.907.907 0 0 0-.272-.643c-3.629-3.601-3.629-9.231 0-12.833a.897.897 0 0 0-.032-1.326 1.048 1.048 0 0 0-1.426.04c-4.353 4.325-4.353 11.08 0 15.405.189.188.453.295.728.295z"/>
        <path d="M37.97 54.804L28.607 18.44a4.776 4.776 0 0 0 .559-6.749 4.82 4.82 0 0 0-6.776-.556 4.776 4.776 0 0 0 0 7.305l-9.36 36.363a.957.957 0 0 0 .691 1.166h.002a.96.96 0 0 0 1.17-.69l.32-1.244a.967.967 0 0 0 .157-.06l17.972-9.422 2.761 10.726a.96.96 0 0 0 1.172.69.957.957 0 0 0 .694-1.165v-.001zM28.7 26.513l-5.228-4.558.661-2.568c.442.14.903.214 1.367.22a4.742 4.742 0 0 0 1.366-.22l1.834 7.126zm-3.2-14.567a2.879 2.879 0 0 1 2.884 2.873 2.879 2.879 0 0 1-2.884 2.873 2.879 2.879 0 0 1-2.885-2.873 2.879 2.879 0 0 1 2.885-2.873zm-2.563 12.087l5.791 5.05-8.557 5.678 2.766-10.728zm-7.086 27.525l3.452-13.407 11.73 5.45-15.182 7.957zm4.874-14.86l9.05-6.01 2.987 11.606-12.037-5.595z"/>
    </g>
</svg>
