<svg xmlns="http://www.w3.org/2000/svg" width="60" height="60" viewBox="0 0 60 60">
    <g fill="#000" fill-rule="nonzero">
        <path d="M55.145 45.901a15.846 15.846 0 0 0-6.739-12.424l-4.487-3.14-1.215 4.859a6.758 6.758 0 0 1-4.594 4.812 8.68 8.68 0 0 0-3.271 1.822V22.258A4.844 4.844 0 0 0 30 17.42v-2.903c0-1.6-1.303-2.903-2.903-2.903h-.968v-8.71c0-1.6-1.303-2.903-2.903-2.903H11.613A2.907 2.907 0 0 0 8.71 2.903v8.71h-.968a2.907 2.907 0 0 0-2.903 2.903v2.903A4.844 4.844 0 0 0 0 22.26V55.16A4.844 4.844 0 0 0 4.839 60H30c.566 0 1.122-.107 1.647-.298.547.19 1.13.298 1.74.298h19.355A7.265 7.265 0 0 0 60 52.742c0-3.16-2.032-5.846-4.855-6.84zm-24.808 4.422H1.935V27.097h30.968v17.207a8.695 8.695 0 0 0-.968 4.003v1.254a5.3 5.3 0 0 0-1.598.762zM10.645 2.903c0-.534.434-.968.968-.968h11.613c.534 0 .968.434.968.968v8.71h-1.936V5.806a1.937 1.937 0 0 0-1.935-1.935h-5.807a1.937 1.937 0 0 0-1.935 1.935v5.807h-1.936v-8.71zm9.678 8.71h-5.807V5.806h5.807v5.807zM6.774 14.516c0-.534.434-.968.968-.968h19.355c.534 0 .968.434.968.968v2.903H6.775v-2.903zM4.84 19.355H30c1.6 0 2.903 1.303 2.903 2.903v2.903H1.935v-2.903c0-1.6 1.303-2.903 2.904-2.903zM1.935 55.16v-2.903h26.717a5.3 5.3 0 0 0 .633 5.806H4.84a2.907 2.907 0 0 1-2.904-2.903zm50.807 2.904H33.387A3.39 3.39 0 0 1 30 54.677a3.39 3.39 0 0 1 3.387-3.387h8.226v-1.935H33.87v-1.048a6.685 6.685 0 0 1 4.794-6.445 8.696 8.696 0 0 0 5.915-6.197l.533-2.13 2.183 1.528c3.452 2.417 5.586 6.271 5.872 10.443-.142-.008-.282-.022-.426-.022h-7.258v1.935h7.258a5.33 5.33 0 0 1 5.323 5.323 5.33 5.33 0 0 1-5.323 5.323z"/>
        <path d="M49.5 49.5h2.25v2.25H49.5zM35.25 48h2.099c0-1.157 1.076-2.382 2.401-2.731l-.605-1.769c-2.22.587-3.895 2.52-3.895 4.5z"/>
        <path d="M53.586 49.566a3.328 3.328 0 0 0-.661-.066v1.929c.099 0 .196.01.287.028.66.136 1.138.732 1.138 1.418 0 .798-.64 1.446-1.425 1.446H42v1.929h10.925c1.834 0 3.325-1.514 3.325-3.375 0-1.599-1.12-2.991-2.664-3.309zM16.5 7.5h2.25v2.25H16.5zM17.25 29.25c-5.376 0-9.75 4.374-9.75 9.75s4.374 9.75 9.75 9.75S27 44.376 27 39s-4.374-9.75-9.75-9.75zm0 17.55c-4.3 0-7.8-3.5-7.8-7.8s3.5-7.8 7.8-7.8 7.8 3.5 7.8 7.8-3.5 7.8-7.8 7.8z"/>
        <path d="M12.75 37.5h9.75v2.25h-9.75zM13.5 41.25H21v2.25h-7.5z"/>
    </g>
</svg>
