<svg xmlns="http://www.w3.org/2000/svg" width="53" height="60" viewBox="0 0 53 60">
    <g fill="#000" fill-rule="nonzero">
        <ellipse cx="14.93" cy="36.75" rx="2.239" ry="2.25"/>
        <ellipse cx="38.07" cy="36.75" rx="2.239" ry="2.25"/>
        <path d="M14.556 30a4.382 4.382 0 0 0-3.03 1.19 1.021 1.021 0 0 0 0 1.5 1.164 1.164 0 0 0 1.583 0c.386-.367.9-.569 1.447-.569s1.061.202 1.448.568c.218.207.505.311.792.311.286 0 .573-.104.791-.31a1.021 1.021 0 0 0 0-1.5 4.383 4.383 0 0 0-3.03-1.19zM35.413 31.188a1.023 1.023 0 0 0 0 1.501 1.164 1.164 0 0 0 1.583 0 2.13 2.13 0 0 1 2.895 0c.219.207.505.311.792.311.287 0 .573-.104.792-.31a1.023 1.023 0 0 0 0-1.502c-1.671-1.584-4.39-1.584-6.062 0zM28.676 46.105a2.956 2.956 0 0 1-2.176.968 2.955 2.955 0 0 1-2.177-.968 1.076 1.076 0 0 0-1.598 0 1.277 1.277 0 0 0 0 1.716c1.009 1.083 2.35 1.679 3.775 1.679 1.426 0 2.766-.596 3.775-1.679a1.277 1.277 0 0 0 0-1.716 1.076 1.076 0 0 0-1.599 0z"/>
        <path d="M53 35.948c0-3.073-2.206-5.636-5.105-6.17V10.85a7.306 7.306 0 0 0-3.244-6.09 7.19 7.19 0 0 0-6.417-.804l-7.051-2.411C25.765-.308 20.06-.498 14.69.995 7.657 2.95 3.626 7.083 3.003 12.96a8.61 8.61 0 0 0-1.285 2.44l-.547 1.63c-.294.877.03 1.797.805 2.29a1.91 1.91 0 0 0 2.399-.248c.225-.22.471-.405.73-.56v11.267C2.205 30.312 0 32.875 0 35.948c0 3.197 2.385 5.84 5.457 6.225a21.781 21.781 0 0 0 5.897 11.415C15.4 57.723 20.779 60 26.5 60h.002c5.714 0 11.086-2.242 15.126-6.313a21.45 21.45 0 0 0 5.95-11.518c3.055-.4 5.422-3.037 5.422-6.22zM43.41 6.646c1.422.951 2.238 2.483 2.238 4.204v14.806c-3.486-.546-6.162-3.59-6.162-7.253l-.093-12.44c1.371-.364 2.801-.129 4.016.683zM3.626 16.774l.219-.65a6.327 6.327 0 0 1 3.483-3.798 6.256 6.256 0 0 1 5.132.081c3.401 1.596 7.513.733 9.999-2.098l.278-.317a1.137 1.137 0 0 0-.097-1.597 1.117 1.117 0 0 0-1.585.098l-.279.317c-1.831 2.086-4.861 2.722-7.367 1.546a8.49 8.49 0 0 0-6.965-.11c-.203.087-.4.185-.594.287 1.305-3.506 4.465-5.975 9.436-7.357 4.936-1.372 10.183-1.195 15.174.512l6.686 2.286.087 5.846a19.725 19.725 0 0 1-12.266 7.787 19.627 19.627 0 0 1-14.553-2.896 6.05 6.05 0 0 0-6.788.063zm-1.38 19.174A4.014 4.014 0 0 1 5.104 32.1v6.133c0 .53.02 1.056.056 1.58a4.014 4.014 0 0 1-2.915-3.865zM40.04 52.087c-3.616 3.643-8.424 5.65-13.538 5.65H26.5c-5.115 0-9.926-2.038-13.547-5.738-3.612-3.691-5.601-8.58-5.601-13.767V17.978a3.862 3.862 0 0 1 1.835.629 21.849 21.849 0 0 0 16.201 3.223 21.92 21.92 0 0 0 11.851-6.497v3.07c0 4.912 3.681 8.972 8.41 9.534v10.51c0 5.152-1.992 9.997-5.609 13.64zm7.811-12.278c.028-.452.044-.906.044-1.362V32.1c1.65.49 2.859 2.029 2.859 3.848a4.014 4.014 0 0 1-2.903 3.86z"/>
    </g>
</svg>
