<svg xmlns="http://www.w3.org/2000/svg" width="59" height="60" viewBox="0 0 59 60">
    <g fill="#000" fill-rule="nonzero">
        <path d="M57.537 30.879l-.006-.024a1.175 1.175 0 0 0-.765-.84c-.122-.042-3.039-1.004-7.19-.709-3.82.272-9.467 1.706-14.673 6.99-3.052 3.096-4.798 6.346-5.776 9.287-.978-2.94-2.725-6.19-5.777-9.288-5.206-5.283-10.852-6.717-14.673-6.989-4.151-.295-7.067.667-7.19.709-.384.129-.67.45-.765.84l-.006.024c-.578 2.046-2.993 12.724 6.22 22.076 5.207 5.284 10.854 6.717 14.674 6.989.55.039 1.079.056 1.583.056 3.293 0 5.5-.729 5.606-.765.12-.04.23-.1.328-.174.098.074.208.134.327.174.106.036 2.313.765 5.606.765.504 0 1.033-.017 1.584-.056 3.82-.272 9.466-1.705 14.672-6.99 9.214-9.35 6.799-20.03 6.221-22.075zm-7.897.794a19.728 19.728 0 0 1 4.425.16l-9.164 9.302v-8.512a19.6 19.6 0 0 1 4.739-.95zm-13.09 6.295c1.851-1.878 3.862-3.344 6.02-4.393V43.5L30.508 55.743c-.51-3.507-.595-11.038 6.043-17.775zm-8.645 13.285a20.68 20.68 0 0 1-.158 4.491L15.683 43.5v-9.925c2.157 1.049 4.17 2.515 6.02 4.393 3.744 3.8 5.831 8.27 6.202 13.285zM8.613 31.673a19.6 19.6 0 0 1 4.74.95v8.512l-9.165-9.302c1.119-.17 2.65-.295 4.425-.16zm-6.07 1.836l15.031 15.256H6.656c-.074 0-.147.008-.217.021-4.451-5.979-4.372-12.075-3.895-15.277zm6.042 17.773c-.05-.05-.098-.101-.147-.152h11.467l6.192 6.286c-3.454.516-10.874.603-17.512-6.134zm27.995 6.295c-1.776.135-3.307.01-4.426-.16l6.194-6.287h11.467l-.147.152c-3.744 3.8-8.148 5.918-13.088 6.295zm15.234-8.79a1.163 1.163 0 0 0-.217-.022H40.679l15.03-15.256c.477 3.202.557 9.298-3.895 15.277z"/>
        <path d="M28.607 35.876a1.154 1.154 0 0 0 1.04 0c.103-.052 2.557-1.308 5.003-4.14C36.9 29.13 39.582 24.632 39.582 18c0-11.74-8.197-16.907-9.84-17.823l-.016-.009a1.152 1.152 0 0 0-1.12-.044c-.102.052-2.556 1.309-5.003 4.14-2.25 2.606-4.932 7.103-4.932 13.736 0 6.633 2.682 11.13 4.932 13.735 2.447 2.832 4.9 4.089 5.004 4.141zm4.357-5.746a17.768 17.768 0 0 1-2.678 2.546v-7.55l6.977-7.018c-.023 4.663-1.468 8.708-4.299 12.022zM25.289 5.87c1.516-1.776 3.053-2.863 3.833-3.353 1.91 1.2 6.866 4.987 7.936 12.511-.037.03-.072.06-.106.093l-6.666 6.706V11.38c0-.644-.52-1.166-1.16-1.166-.64 0-1.159.522-1.159 1.166v3.012l-5.009-5.04A17.681 17.681 0 0 1 25.29 5.87zm-3.305 5.802l5.983 6.019V32.674C25.45 30.735 20.99 26.148 20.99 18c0-2.258.333-4.372.994-6.328z"/>
        <path d="M29.5 8.25a1.125 1.125 0 0 0 0-2.25c-.295 0-.584.12-.792.329-.208.21-.328.499-.328.796A1.127 1.127 0 0 0 29.5 8.25z"/>
    </g>
</svg>
