<svg xmlns="http://www.w3.org/2000/svg" width="186" height="28" viewBox="0 0 186 28">
    <path fill="#FFF" fill-rule="nonzero" d="M26.142 28H0V0h4.62v23.785h21.522V28zM69.65 4.215H56.328V28h-4.62V4.215H38.385V0h31.263v4.215zM125.322 28h-4.62V15.586h-22.33V28H93.75V0h4.62v11.37h22.331V0h4.62v28zm60.178 0h-5.352l-7.546-10.674H158.51V28h-4.62V0h21.985c2.926 0 5.223.793 6.891 2.378 1.669 1.586 2.503 3.732 2.503 6.44 0 2.372-.68 4.28-2.04 5.723-1.258 1.341-2.99 2.192-5.198 2.553L185.5 28zm-10.318-14.89c3.567 0 5.351-1.43 5.351-4.292 0-3.068-1.925-4.603-5.775-4.603H158.51v8.895h16.672z"/>
</svg>
