<svg xmlns="http://www.w3.org/2000/svg" width="136" height="16" viewBox="0 0 136 16">
    <g fill="#4FD1A8" fill-rule="nonzero">
        <path d="M3.232 16a.277.277 0 0 1-.168-.058.307.307 0 0 1-.114-.294l.886-5.416-3.75-3.835a.311.311 0 0 1-.072-.307.291.291 0 0 1 .231-.205l5.181-.79L7.743.168A.285.285 0 0 1 8 0c.11 0 .209.065.257.168l2.316 4.927 5.182.79a.291.291 0 0 1 .231.205.31.31 0 0 1-.072.307l-3.75 3.836.885 5.415a.308.308 0 0 1-.113.294.273.273 0 0 1-.302.023L8 13.408l-4.634 2.557a.278.278 0 0 1-.134.034zM33.232 16a.277.277 0 0 1-.168-.058.307.307 0 0 1-.114-.294l.886-5.416-3.75-3.835a.311.311 0 0 1-.072-.307.291.291 0 0 1 .231-.205l5.181-.79L37.743.168A.285.285 0 0 1 38 0c.11 0 .209.065.257.168l2.316 4.927 5.182.79a.291.291 0 0 1 .231.205.31.31 0 0 1-.072.307l-3.75 3.836.885 5.415a.308.308 0 0 1-.113.294.273.273 0 0 1-.302.023L38 13.408l-4.634 2.557a.278.278 0 0 1-.134.034zM63.232 16a.277.277 0 0 1-.168-.058.307.307 0 0 1-.114-.294l.886-5.416-3.75-3.835a.311.311 0 0 1-.072-.307.291.291 0 0 1 .231-.205l5.181-.79L67.743.168A.285.285 0 0 1 68 0c.11 0 .209.065.257.168l2.316 4.927 5.182.79a.291.291 0 0 1 .231.205.31.31 0 0 1-.072.307l-3.75 3.836.885 5.415a.308.308 0 0 1-.113.294.273.273 0 0 1-.302.023L68 13.408l-4.634 2.557a.278.278 0 0 1-.134.034zM93.232 16a.277.277 0 0 1-.168-.058.307.307 0 0 1-.114-.294l.886-5.416-3.75-3.835a.311.311 0 0 1-.072-.307.291.291 0 0 1 .231-.205l5.181-.79L97.743.168A.285.285 0 0 1 98 0c.11 0 .209.065.257.168l2.316 4.927 5.182.79a.291.291 0 0 1 .231.205.31.31 0 0 1-.072.307l-3.75 3.836.885 5.415a.308.308 0 0 1-.113.294.273.273 0 0 1-.302.023L98 13.408l-4.634 2.557a.278.278 0 0 1-.134.034zM123.232 16a.277.277 0 0 1-.168-.058.307.307 0 0 1-.114-.294l.886-5.416-3.75-3.835a.311.311 0 0 1-.072-.307.291.291 0 0 1 .231-.205l5.181-.79 2.317-4.927A.285.285 0 0 1 128 0c.11 0 .209.065.257.168l2.316 4.927 5.182.79a.291.291 0 0 1 .231.205.31.31 0 0 1-.072.307l-3.75 3.836.885 5.415a.308.308 0 0 1-.113.294.273.273 0 0 1-.302.023L128 13.408l-4.634 2.557a.278.278 0 0 1-.134.034z"/>
    </g>
</svg>
